<svg width="12" height="17" viewBox="0 0 12 17" fill="none" xmlns="http://www.w3.org/2000/svg">
<path fill-rule="evenodd" clip-rule="evenodd" d="M1.01299 7.08333C0.174909 7.08333 0 7.24641 0 8.02778V9.44445C0 10.2258 0.174909 10.3889 1.01299 10.3889H3.03896V16.0556C3.03896 16.8369 3.21387 17 4.05195 17H6.07792C6.916 17 7.09091 16.8369 7.09091 16.0556V10.3889H9.36577C10.0014 10.3889 10.1652 10.2737 10.3398 9.7039L10.7739 8.28724C11.073 7.31115 10.8887 7.08333 9.79991 7.08333H7.09091V4.72222C7.09091 4.20062 7.54444 3.77778 8.1039 3.77778H10.987C11.8251 3.77778 12 3.6147 12 2.83333V0.944445C12 0.163074 11.8251 0 10.987 0H8.1039C5.30661 0 3.03896 2.11421 3.03896 4.72222V7.08333H1.01299Z" fill="#1E1E1E"/>
</svg>
