<svg width="15" height="15" viewBox="0 0 15 15" fill="none" xmlns="http://www.w3.org/2000/svg">
<path d="M3.4915 4.8092H0.480217C0.346572 4.8092 0.238281 4.91754 0.238281 5.05114V14.7251C0.238281 14.8587 0.346572 14.967 0.480217 14.967H3.4915C3.62514 14.967 3.73343 14.8587 3.73343 14.7251V5.05114C3.73343 4.91754 3.62514 4.8092 3.4915 4.8092Z" fill="#1E1E1E"/>
<path d="M1.98707 0C0.891389 0 0 0.890421 0 1.98489C0 3.07984 0.891389 3.9706 1.98707 3.9706C3.08188 3.9706 3.97254 3.07979 3.97254 1.98489C3.97259 0.890421 3.08188 0 1.98707 0Z" fill="#1E1E1E"/>
<path d="M11.1507 4.56873C9.94123 4.56873 9.04718 5.08865 8.5049 5.6794V5.0511C8.5049 4.9175 8.39661 4.80916 8.26297 4.80916H5.37914C5.2455 4.80916 5.13721 4.9175 5.13721 5.0511V14.725C5.13721 14.8587 5.2455 14.967 5.37914 14.967H8.38384C8.51749 14.967 8.62578 14.8587 8.62578 14.725V9.93868C8.62578 8.3258 9.06387 7.69744 10.1882 7.69744C11.4127 7.69744 11.51 8.70476 11.51 10.0217V14.7251C11.51 14.8587 11.6183 14.967 11.7519 14.967H14.7577C14.8914 14.967 14.9997 14.8587 14.9997 14.7251V9.41876C14.9997 7.02045 14.5424 4.56873 11.1507 4.56873Z" fill="#1E1E1E"/>
</svg>
