<svg width="39" height="37" viewBox="0 0 39 37" fill="none" xmlns="http://www.w3.org/2000/svg">
<path d="M2.275 36.89C1.625 36.89 1.08333 36.685 0.65 36.2752C0.216667 35.8653 0 35.3529 0 34.7381V26.4378C0 25.9596 0.1625 25.5409 0.4875 25.1815C0.8125 24.8235 1.22778 24.5933 1.73333 24.4909L9.20833 23.0562C9.71389 22.9879 10.2288 23.0303 10.7532 23.1833C11.2761 23.3377 11.7 23.5686 12.025 23.876L17.1167 28.6922C19.8611 27.121 22.3708 25.2594 24.6458 23.1075C26.9208 20.9556 28.8167 18.6499 30.3333 16.1906L25.1333 11.1695C24.8083 10.8621 24.6003 10.5116 24.5093 10.1181C24.4198 9.72598 24.4111 9.29081 24.4833 8.81261L25.8917 1.63956C25.9639 1.16135 26.1986 0.768541 26.5958 0.461125C26.9931 0.153708 27.4444 0 27.95 0H36.725C37.375 0 37.9167 0.204944 38.35 0.614833C38.7833 1.02472 39 1.53708 39 2.15192C39 6.55822 37.9614 10.8532 35.8843 15.0368C33.8087 19.2217 31.0642 22.9278 27.651 26.155C24.2392 29.3836 20.3219 31.9795 15.899 33.9429C11.4747 35.9076 6.93333 36.89 2.275 36.89Z" fill="#6CC51D"/>
</svg>
